<svg xmlns="http://www.w3.org/2000/svg" version="1.1" xmlns:xlink="http://www.w3.org/1999/xlink" xmlns:svgjs="http://svgjs.dev/svgjs" width="1437" height="560" preserveAspectRatio="none" viewBox="0 0 1437 560">
    <g mask="url(&quot;#SvgjsMask1096&quot;)" fill="none">
        <path d="M1012.23 128.83L1067.55 128.83L1067.55 178.88L1012.23 178.88z" fill="rgba(226, 27, 27, 1)"></path>
        <path d="M1061.64 109.73a37.8 37.8 0 1 0 74.08 15.1z" fill="rgba(2, 23, 255, 1)"></path>
        <path d="M26.89 235.35 a45.15 45.15 0 1 0 90.3 0 a45.15 45.15 0 1 0 -90.3 0z" stroke="rgba(2, 23, 255, 1)"></path>
        <path d="M1434.74 114.56L1485.25 114.56L1485.25 165.07L1434.74 165.07z" fill="rgba(226, 27, 27, 1)"></path>
        <path d="M1313.11 303.11 a53.9 53.9 0 1 0 107.8 0 a53.9 53.9 0 1 0 -107.8 0z" stroke="rgba(2, 23, 255, 1)"></path>
        <path d="M1302.11 286.37 a8.35 8.35 0 1 0 16.7 0 a8.35 8.35 0 1 0 -16.7 0z" stroke="rgba(2, 23, 255, 1)"></path>
        <path d="M503.82 111.01 a46.85 46.85 0 1 0 93.7 0 a46.85 46.85 0 1 0 -93.7 0z" fill="rgba(255, 225, 23, 1)"></path>
        <path d="M1040.2 16.61a41.43 41.43 0 1 0 75.14 34.94z" fill="rgba(226, 27, 27, 1)"></path>
        <path d="M0.16 349.37 a23.63 23.63 0 1 0 47.26 0 a23.63 23.63 0 1 0 -47.26 0z" stroke="rgba(170, 177, 255, 1)"></path>
        <path d="M1026.12 139.26L1041.12 139.26L1041.12 154.26L1026.12 154.26z" stroke="rgba(170, 177, 255, 1)"></path>
        <path d="M1163.63 270.86 a49.74 49.74 0 1 0 99.48 0 a49.74 49.74 0 1 0 -99.48 0z" fill="rgba(2, 23, 255, 1)"></path>
        <path d="M315.13 278.58L328.95 278.58L328.95 314.81L315.13 314.81z" fill="rgba(255, 225, 23, 1)"></path>
        <path d="M1174.82 35.62 a34.75 34.75 0 1 0 69.5 0 a34.75 34.75 0 1 0 -69.5 0z" fill="rgba(255, 225, 23, 1)"></path>
        <path d="M-8.31 379.9 a46.02 46.02 0 1 0 92.04 0 a46.02 46.02 0 1 0 -92.04 0z" fill="rgba(170, 177, 255, 1)"></path>
        <path d="M546.94 460.4L591.11 460.4L591.11 487.75L546.94 487.75z" fill="rgba(255, 225, 23, 1)"></path>
        <path d="M808.32 22.12 a10.73 10.73 0 1 0 21.46 0 a10.73 10.73 0 1 0 -21.46 0z" stroke="rgba(255, 225, 23, 1)"></path>
        <path d="M1078.63 139.84 a44.45 44.45 0 1 0 88.9 0 a44.45 44.45 0 1 0 -88.9 0z" stroke="rgba(255, 225, 23, 1)"></path>
        <path d="M494.65 4.39L523.54 4.39L523.54 26.36L494.65 26.36z" stroke="rgba(170, 177, 255, 1)"></path>
        <path d="M1240.96 322.24a28.03 28.03 0 1 0 39.38-39.9z" fill="rgba(2, 23, 255, 1)"></path>
        <path d="M623.76 515.87L667.3 515.87L667.3 559.41L623.76 559.41z" stroke="rgba(2, 23, 255, 1)"></path>
        <path d="M67.28 596.96a49.22 49.22 0 1 0-42.78-88.65z" fill="rgba(2, 23, 255, 1)"></path>
        <path d="M72.32 467.77a34.95 34.95 0 1 0 69.78 4.08z" fill="rgba(255, 225, 23, 1)"></path>
        <path d="M75.69 324.91L104.55 324.91L104.55 371.9L75.69 371.9z" stroke="rgba(2, 23, 255, 1)"></path>
        <path d="M553.02 394.53 a7.42 7.42 0 1 0 14.84 0 a7.42 7.42 0 1 0 -14.84 0z" fill="rgba(226, 27, 27, 1)"></path>
        <path d="M849.06 484.75L871.05 484.75L871.05 533.31L849.06 533.31z" stroke="rgba(255, 225, 23, 1)"></path>
        <path d="M953.46 344.07L981.52 344.07L981.52 390.68L953.46 390.68z" fill="rgba(255, 225, 23, 1)"></path>
        <path d="M406.04 283.8a17.44 17.44 0 1 0 11.08 33.07z" fill="rgba(2, 23, 255, 1)"></path>
        <path d="M35.97 283.35 a53.86 53.86 0 1 0 107.72 0 a53.86 53.86 0 1 0 -107.72 0z" stroke="rgba(170, 177, 255, 1)"></path>
        <path d="M355.86 366.74a28.6 28.6 0 1 0 56.94 5.42z" stroke="rgba(226, 27, 27, 1)"></path>
        <path d="M42.95 63.53L69.09 63.53L69.09 89.67L42.95 89.67z" stroke="rgba(255, 225, 23, 1)"></path>
        <path d="M719.37 495.09 a4.63 4.63 0 1 0 9.26 0 a4.63 4.63 0 1 0 -9.26 0z" fill="rgba(226, 27, 27, 1)"></path>
        <path d="M188.19 473.99L230.79 473.99L230.79 516.59L188.19 516.59z" fill="rgba(226, 27, 27, 1)"></path>
        <path d="M301.32 176.33L318.68 176.33L318.68 193.69L301.32 193.69z" stroke="rgba(226, 27, 27, 1)"></path>
    </g>
    <defs>
        <mask id="SvgjsMask1096">
            <rect width="1437" height="560" fill="#ffffff"></rect>
        </mask>
    </defs>
</svg>