<svg xmlns="http://www.w3.org/2000/svg" viewBox="0 0 1920 1080"><g transform="          rotate(0 960 540)           translate(-0 -0)          scale(1)        "><rect width="1920" height="1080" fill="rgb(30, 41, 59)"></rect><g transform="translate(0, 0)"><path fill="rgb(29, 93, 78)" fill-opacity="1" d="M0,529.415L8.421,525.113C16.842,520.81,33.684,512.206,50.526,510.872C67.368,509.538,84.211,515.475,101.053,516.142C117.895,516.81,134.737,512.208,151.579,454.775C168.421,397.341,185.263,287.075,202.105,277.762C218.947,268.45,235.789,360.091,252.632,332.004C269.474,303.917,286.316,156.103,303.158,147.721C320,139.338,336.842,270.387,353.684,303.028C370.526,335.67,387.368,269.905,404.211,209.033C421.053,148.161,437.895,92.183,454.737,121.078C471.579,149.974,488.421,263.743,505.263,284.257C522.105,304.771,538.947,232.03,555.789,195.621C572.632,159.212,589.474,159.135,606.316,211.911C623.158,264.687,640,370.316,656.842,427.046C673.684,483.776,690.526,491.608,707.368,427.012C724.211,362.417,741.053,225.394,757.895,168.935C774.737,112.475,791.579,136.578,808.421,189.409C825.263,242.24,842.105,323.799,858.947,381.495C875.789,439.191,892.632,473.025,909.474,450.772C926.316,428.518,943.158,350.178,960,270.469C976.842,190.761,993.684,109.684,1010.526,65.047C1027.368,20.41,1044.211,12.212,1061.053,61.618C1077.895,111.025,1094.737,218.037,1111.579,251.673C1128.421,285.309,1145.263,245.57,1162.105,204.266C1178.947,162.962,1195.789,120.094,1212.632,108.383C1229.474,96.672,1246.316,116.118,1263.158,129.912C1280,143.706,1296.842,151.848,1313.684,199.584C1330.526,247.32,1347.368,334.652,1364.211,394.125C1381.053,453.598,1397.895,485.214,1414.737,504.177C1431.579,523.141,1448.421,529.453,1465.263,492.936C1482.105,456.419,1498.947,377.072,1515.789,313.942C1532.632,250.812,1549.474,203.9,1566.316,162.955C1583.158,122.01,1600,87.033,1616.842,138.71C1633.684,190.387,1650.526,328.718,1667.368,408.251C1684.211,487.784,1701.053,508.519,1717.895,519.622C1734.737,530.725,1751.579,532.196,1768.421,501.422C1785.263,470.648,1802.105,407.628,1818.947,368.275C1835.789,328.923,1852.632,313.237,1869.474,281.188C1886.316,249.138,1903.158,200.725,1911.579,176.518L1920,152.312L1920,1080L1911.579,1080C1903.158,1080,1886.316,1080,1869.474,1080C1852.632,1080,1835.789,1080,1818.947,1080C1802.105,1080,1785.263,1080,1768.421,1080C1751.579,1080,1734.737,1080,1717.895,1080C1701.053,1080,1684.211,1080,1667.368,1080C1650.526,1080,1633.684,1080,1616.842,1080C1600,1080,1583.158,1080,1566.316,1080C1549.474,1080,1532.632,1080,1515.789,1080C1498.947,1080,1482.105,1080,1465.263,1080C1448.421,1080,1431.579,1080,1414.737,1080C1397.895,1080,1381.053,1080,1364.211,1080C1347.368,1080,1330.526,1080,1313.684,1080C1296.842,1080,1280,1080,1263.158,1080C1246.316,1080,1229.474,1080,1212.632,1080C1195.789,1080,1178.947,1080,1162.105,1080C1145.263,1080,1128.421,1080,1111.579,1080C1094.737,1080,1077.895,1080,1061.053,1080C1044.211,1080,1027.368,1080,1010.526,1080C993.684,1080,976.842,1080,960,1080C943.158,1080,926.316,1080,909.474,1080C892.632,1080,875.789,1080,858.947,1080C842.105,1080,825.263,1080,808.421,1080C791.579,1080,774.737,1080,757.895,1080C741.053,1080,724.211,1080,707.368,1080C690.526,1080,673.684,1080,656.842,1080C640,1080,623.158,1080,606.316,1080C589.474,1080,572.632,1080,555.789,1080C538.947,1080,522.105,1080,505.263,1080C488.421,1080,471.579,1080,454.737,1080C437.895,1080,421.053,1080,404.211,1080C387.368,1080,370.526,1080,353.684,1080C336.842,1080,320,1080,303.158,1080C286.316,1080,269.474,1080,252.632,1080C235.789,1080,218.947,1080,202.105,1080C185.263,1080,168.421,1080,151.579,1080C134.737,1080,117.895,1080,101.053,1080C84.211,1080,67.368,1080,50.526,1080C33.684,1080,16.842,1080,8.421,1080L0,1080Z"></path></g><g transform="translate(0, 540)"><path fill="rgb(28, 145, 96)" fill-opacity="1" d="M0,526.991L8.421,516.628C16.842,506.264,33.684,485.537,50.526,479.645C67.368,473.752,84.211,482.695,101.053,472.32C117.895,461.946,134.737,432.254,151.579,358.184C168.421,284.113,185.263,165.663,202.105,179.847C218.947,194.032,235.789,340.851,252.632,374.208C269.474,407.565,286.316,327.46,303.158,259.344C320,191.229,336.842,135.103,353.684,133.946C370.526,132.789,387.368,186.602,404.211,261.59C421.053,336.578,437.895,432.741,454.737,438.509C471.579,444.277,488.421,359.648,505.263,309.779C522.105,259.91,538.947,244.8,555.789,204.645C572.632,164.49,589.474,99.29,606.316,65.918C623.158,32.545,640,31.001,656.842,60.357C673.684,89.713,690.526,149.97,707.368,231.635C724.211,313.301,741.053,416.376,757.895,451.326C774.737,486.277,791.579,453.103,808.421,378.825C825.263,304.547,842.105,189.164,858.947,203.361C875.789,217.558,892.632,361.334,909.474,383.793C926.316,406.252,943.158,307.393,960,284.224C976.842,261.055,993.684,313.576,1010.526,316.811C1027.368,320.047,1044.211,273.998,1061.053,279.407C1077.895,284.816,1094.737,341.683,1111.579,369.345C1128.421,397.007,1145.263,395.464,1162.105,368.932C1178.947,342.4,1195.789,290.88,1212.632,276.013C1229.474,261.146,1246.316,282.933,1263.158,293.583C1280,304.233,1296.842,303.745,1313.684,298.446C1330.526,293.147,1347.368,283.037,1364.211,274.165C1381.053,265.293,1397.895,257.66,1414.737,221.338C1431.579,185.017,1448.421,120.008,1465.263,81.187C1482.105,42.367,1498.947,29.736,1515.789,47.773C1532.632,65.81,1549.474,114.514,1566.316,145.132C1583.158,175.75,1600,188.282,1616.842,191.122C1633.684,193.961,1650.526,187.109,1667.368,203.117C1684.211,219.124,1701.053,257.99,1717.895,285.997C1734.737,314.003,1751.579,331.149,1768.421,357.991C1785.263,384.834,1802.105,421.374,1818.947,415.134C1835.789,408.894,1852.632,359.875,1869.474,309.188C1886.316,258.5,1903.158,206.144,1911.579,179.966L1920,153.788L1920,540L1911.579,540C1903.158,540,1886.316,540,1869.474,540C1852.632,540,1835.789,540,1818.947,540C1802.105,540,1785.263,540,1768.421,540C1751.579,540,1734.737,540,1717.895,540C1701.053,540,1684.211,540,1667.368,540C1650.526,540,1633.684,540,1616.842,540C1600,540,1583.158,540,1566.316,540C1549.474,540,1532.632,540,1515.789,540C1498.947,540,1482.105,540,1465.263,540C1448.421,540,1431.579,540,1414.737,540C1397.895,540,1381.053,540,1364.211,540C1347.368,540,1330.526,540,1313.684,540C1296.842,540,1280,540,1263.158,540C1246.316,540,1229.474,540,1212.632,540C1195.789,540,1178.947,540,1162.105,540C1145.263,540,1128.421,540,1111.579,540C1094.737,540,1077.895,540,1061.053,540C1044.211,540,1027.368,540,1010.526,540C993.684,540,976.842,540,960,540C943.158,540,926.316,540,909.474,540C892.632,540,875.789,540,858.947,540C842.105,540,825.263,540,808.421,540C791.579,540,774.737,540,757.895,540C741.053,540,724.211,540,707.368,540C690.526,540,673.684,540,656.842,540C640,540,623.158,540,606.316,540C589.474,540,572.632,540,555.789,540C538.947,540,522.105,540,505.263,540C488.421,540,471.579,540,454.737,540C437.895,540,421.053,540,404.211,540C387.368,540,370.526,540,353.684,540C336.842,540,320,540,303.158,540C286.316,540,269.474,540,252.632,540C235.789,540,218.947,540,202.105,540C185.263,540,168.421,540,151.579,540C134.737,540,117.895,540,101.053,540C84.211,540,67.368,540,50.526,540C33.684,540,16.842,540,8.421,540L0,540Z"></path></g></g></svg>