<svg xmlns="http://www.w3.org/2000/svg" version="1.1" xmlns:xlink="http://www.w3.org/1999/xlink" xmlns:svgjs="http://svgjs.dev/svgjs" width="1437" height="560" preserveAspectRatio="none" viewBox="0 0 1437 560">
    <g mask="url(&quot;#SvgjsMask1009&quot;)" fill="none">
        <path d="M463.43 25.01a1.89 1.89 0 1 0 2.08-3.15z" stroke="rgba(255, 244, 167, 1)"></path>
        <path d="M1295.87 96.73L1351.86 96.73L1351.86 152.72L1295.87 152.72z" fill="rgba(255, 244, 167, 1)"></path>
        <path d="M1099.53 512.89L1144.5 512.89L1144.5 566.31L1099.53 566.31z" fill="rgba(255, 244, 167, 1)"></path>
        <path d="M1171.65 232.31L1204.76 232.31L1204.76 258.33L1171.65 258.33z" fill="rgba(170, 177, 255, 1)"></path>
        <path d="M1126.24 240.78L1161.98 240.78L1161.98 276.52L1126.24 276.52z" fill="rgba(220, 222, 255, 1)"></path>
        <path d="M129.09 457.77 a5.21 5.21 0 1 0 10.42 0 a5.21 5.21 0 1 0 -10.42 0z" stroke="rgba(220, 222, 255, 1)"></path>
        <path d="M203.07 453.07 a6 6 0 1 0 12 0 a6 6 0 1 0 -12 0z" fill="rgba(255, 244, 167, 1)"></path>
        <path d="M219.35 40.98L254.37 40.98L254.37 76L219.35 76z" stroke="rgba(255, 244, 167, 1)"></path>
        <path d="M1387.1 411.79 a42.14 42.14 0 1 0 84.28 0 a42.14 42.14 0 1 0 -84.28 0z" fill="rgba(220, 222, 255, 1)"></path>
        <path d="M-15.77 107.8 a37.23 37.23 0 1 0 74.46 0 a37.23 37.23 0 1 0 -74.46 0z" fill="rgba(170, 177, 255, 1)"></path>
        <path d="M418.9 349.93 a18.08 18.08 0 1 0 36.16 0 a18.08 18.08 0 1 0 -36.16 0z" stroke="rgba(255, 193, 193, 1)"></path>
        <path d="M1055.64 505.4a26.44 26.44 0 1 0-42.94-30.86z" stroke="rgba(255, 193, 193, 1)"></path>
        <path d="M1132.49 286.28a11.29 11.29 0 1 0 8.63 20.86z" stroke="rgba(255, 193, 193, 1)"></path>
        <path d="M1136.14 227.16a12.67 12.67 0 1 0-14.6-20.71z" stroke="rgba(255, 193, 193, 1)"></path>
        <path d="M5.76 299.13 a19.24 19.24 0 1 0 38.48 0 a19.24 19.24 0 1 0 -38.48 0z" stroke="rgba(255, 193, 193, 1)"></path>
        <path d="M41.19 37.37a31.19 31.19 0 1 0-22.3-58.26z" stroke="rgba(170, 177, 255, 1)"></path>
        <path d="M648.48 142.04L684.76 142.04L684.76 178.32L648.48 178.32z" stroke="rgba(220, 222, 255, 1)"></path>
        <path d="M1002.52 270.6a7.98 7.98 0 1 0 15.66 3.06z" fill="rgba(255, 193, 193, 1)"></path>
        <path d="M724.26 241.97L756.95 241.97L756.95 259.62L724.26 259.62z" stroke="rgba(170, 177, 255, 1)"></path>
        <path d="M1389.3 301.31a16.85 16.85 0 1 0 27.62 19.3z" stroke="rgba(170, 177, 255, 1)"></path>
        <path d="M793.52 189.53L822.06 189.53L822.06 218.07L793.52 218.07z" stroke="rgba(255, 193, 193, 1)"></path>
        <path d="M862.45 340.44L885.41 340.44L885.41 395.73L862.45 395.73z" fill="rgba(170, 177, 255, 1)"></path>
        <path d="M578.15 191.16L604.73 191.16L604.73 217.74L578.15 217.74z" fill="rgba(220, 222, 255, 1)"></path>
        <path d="M546.51 341.28a20.3 20.3 0 1 0-12.55-38.61z" stroke="rgba(170, 177, 255, 1)"></path>
        <path d="M335.62 222.53a21.48 21.48 0 1 0 41.76 10.1z" fill="rgba(255, 244, 167, 1)"></path>
        <path d="M800.63 145.62a51.98 51.98 0 1 0-103.42 10.52z" stroke="rgba(255, 193, 193, 1)"></path>
        <path d="M1150.6-6.76a44.9 44.9 0 1 0-52.05 73.17z" fill="rgba(170, 177, 255, 1)"></path>
        <path d="M1372.8 198.15L1381.49 198.15L1381.49 216.1L1372.8 216.1z" stroke="rgba(255, 193, 193, 1)"></path>
        <path d="M651.01 515.86a4.99 4.99 0 1 0-6.01-7.96z" fill="rgba(220, 222, 255, 1)"></path>
        <path d="M208.96 224.92L242.68 224.92L242.68 258.64L208.96 258.64z" stroke="rgba(255, 244, 167, 1)"></path>
        <path d="M1405.7 348.98L1429.99 348.98L1429.99 373.27L1405.7 373.27z" stroke="rgba(255, 244, 167, 1)"></path>
        <path d="M548.97 512.79 a28.72 28.72 0 1 0 57.44 0 a28.72 28.72 0 1 0 -57.44 0z" stroke="rgba(170, 177, 255, 1)"></path>
        <path d="M1046.17 144.42a26.72 26.72 0 1 0 1.93 53.41z" stroke="rgba(220, 222, 255, 1)"></path>
    </g>
    <defs>
        <mask id="SvgjsMask1009">
            <rect width="1437" height="560" fill="#ffffff"></rect>
        </mask>
    </defs>
</svg>