<svg xmlns="http://www.w3.org/2000/svg" version="1.1" xmlns:xlink="http://www.w3.org/1999/xlink" xmlns:svgjs="http://svgjs.dev/svgjs" width="1437" height="560" preserveAspectRatio="none" viewBox="0 0 1437 560">
    <g mask="url(&quot;#SvgjsMask1013&quot;)" fill="none">
        <path d="M514.6 500.25L526.19 500.25L526.19 511.84L514.6 511.84z" stroke="rgba(78, 80, 109, 1)"></path>
        <path d="M851.81 213.64a12.07 12.07 0 1 0 23.71 4.53z" stroke="rgba(101, 113, 255, 1)"></path>
        <path d="M94.71 401.12 a20.3 20.3 0 1 0 40.6 0 a20.3 20.3 0 1 0 -40.6 0z" stroke="rgba(255, 12, 12, 1)"></path>
        <path d="M648.32 58.92L696.44 58.92L696.44 99.03L648.32 99.03z" stroke="rgba(78, 80, 109, 1)"></path>
        <path d="M505.6 119.33L529.22 119.33L529.22 145.78L505.6 145.78z" stroke="rgba(255, 227, 30, 1)"></path>
        <path d="M500.12 233.54a45.4 45.4 0 1 0-56.64 70.96z" fill="rgba(255, 227, 30, 1)"></path>
        <path d="M457.68 264.83L484.87 264.83L484.87 292.02L457.68 292.02z" stroke="rgba(255, 227, 30, 1)"></path>
        <path d="M926.47 59.89a20.84 20.84 0 1 0 39.02-14.64z" fill="rgba(78, 80, 109, 1)"></path>
        <path d="M179.62 550.72a0.22 0.22 0 1 0 0.44 0.06z" fill="rgba(255, 227, 30, 1)"></path>
        <path d="M748.03 19.03L798.11 19.03L798.11 36.7L748.03 36.7z" fill="rgba(255, 227, 30, 1)"></path>
        <path d="M236.59 454.84L252.81 454.84L252.81 481.56L236.59 481.56z" fill="rgba(101, 113, 255, 1)"></path>
        <path d="M452.57 422.07L469.1 422.07L469.1 450.54L452.57 450.54z" fill="rgba(101, 113, 255, 1)"></path>
        <path d="M1211.98 18.75a33.54 33.54 0 1 0 55.34 37.9z" fill="rgba(255, 12, 12, 1)"></path>
        <path d="M798.85 485.21L834.62 485.21L834.62 520.98L798.85 520.98z" stroke="rgba(78, 80, 109, 1)"></path>
        <path d="M143.51 246.31a52.01 52.01 0 1 0-63.69 82.24z" fill="rgba(78, 80, 109, 1)"></path>
        <path d="M1202.76 322.38 a46.68 46.68 0 1 0 93.36 0 a46.68 46.68 0 1 0 -93.36 0z" stroke="rgba(101, 113, 255, 1)"></path>
        <path d="M982.07 99.59L1001.11 99.59L1001.11 118.63L982.07 118.63z" fill="rgba(101, 113, 255, 1)"></path>
        <path d="M1420.41 106.34L1439.26 106.34L1439.26 160.61L1420.41 160.61z" stroke="rgba(78, 80, 109, 1)"></path>
        <path d="M1247.09 287.57L1295.85 287.57L1295.85 288.08L1247.09 288.08z" fill="rgba(78, 80, 109, 1)"></path>
        <path d="M564.85 293.56 a13.89 13.89 0 1 0 27.78 0 a13.89 13.89 0 1 0 -27.78 0z" fill="rgba(101, 113, 255, 1)"></path>
        <path d="M161.46 373.45L196.47 373.45L196.47 414.74L161.46 414.74z" stroke="rgba(78, 80, 109, 1)"></path>
        <path d="M1297.36 194.59L1314.25 194.59L1314.25 225.73L1297.36 225.73z" stroke="rgba(101, 113, 255, 1)"></path>
        <path d="M652.09 290.55L692.07 290.55L692.07 330.53L652.09 330.53z" stroke="rgba(101, 113, 255, 1)"></path>
        <path d="M1434.03 514.05L1451.17 514.05L1451.17 535.3L1434.03 535.3z" fill="rgba(255, 12, 12, 1)"></path>
        <path d="M984.69 426.14L1021.46 426.14L1021.46 462.91L984.69 462.91z" stroke="rgba(78, 80, 109, 1)"></path>
        <path d="M1249.94 256.83L1263.26 256.83L1263.26 257.05L1249.94 257.05z" fill="rgba(78, 80, 109, 1)"></path>
        <path d="M513.37 178.58L518.83 178.58L518.83 184.04L513.37 184.04z" stroke="rgba(101, 113, 255, 1)"></path>
        <path d="M124.31 528.07L159.45 528.07L159.45 530.1L124.31 530.1z" stroke="rgba(255, 227, 30, 1)"></path>
        <path d="M485.17 239.7L537.46 239.7L537.46 275.91L485.17 275.91z" stroke="rgba(255, 12, 12, 1)"></path>
        <path d="M805.19 378.84L834.35 378.84L834.35 408L805.19 408z" stroke="rgba(78, 80, 109, 1)"></path>
        <path d="M173.06 158.07L199.78 158.07L199.78 184.79L173.06 184.79z" fill="rgba(101, 113, 255, 1)"></path>
        <path d="M616.51 526.71L623.91 526.71L623.91 534.11L616.51 534.11z" fill="rgba(255, 227, 30, 1)"></path>
        <path d="M110.34 245.79L139.28 245.79L139.28 289.83L110.34 289.83z" fill="rgba(78, 80, 109, 1)"></path>
    </g>
    <defs>
        <mask id="SvgjsMask1013">
            <rect width="1437" height="560" fill="#ffffff"></rect>
        </mask>
    </defs>
</svg>